<?xml version="1.0" encoding="UTF-8" standalone="no"?>
<!-- Created with Inkscape (http://www.inkscape.org/) -->

<svg
   version="1.1"
   id="svg4493"
   xml:space="preserve"
   width="1066.6667"
   height="1066.6667"
   viewBox="0 0 1066.6667 1066.6667"
   sodipodi:docname="kangaroo-silhouette-color-pdv.svg"
   inkscape:version="1.1.2 (b8e25be833, 2022-02-05)"
   xmlns:inkscape="http://www.inkscape.org/namespaces/inkscape"
   xmlns:sodipodi="http://sodipodi.sourceforge.net/DTD/sodipodi-0.dtd"
   xmlns="http://www.w3.org/2000/svg"
   xmlns:svg="http://www.w3.org/2000/svg"><defs
     id="defs4497"><clipPath
       clipPathUnits="userSpaceOnUse"
       id="clipPath4507"><path
         d="M 0,800 H 800 V 0 H 0 Z"
         id="path4505" /></clipPath></defs><sodipodi:namedview
     id="namedview4495"
     pagecolor="#ffffff"
     bordercolor="#666666"
     borderopacity="1.0"
     inkscape:pageshadow="2"
     inkscape:pageopacity="0.0"
     inkscape:pagecheckerboard="0"
     showgrid="false"
     inkscape:zoom="0.77906244"
     inkscape:cx="533.33337"
     inkscape:cy="533.33337"
     inkscape:window-width="1920"
     inkscape:window-height="1018"
     inkscape:window-x="-8"
     inkscape:window-y="-8"
     inkscape:window-maximized="1"
     inkscape:current-layer="g4499" /><g
     id="g4499"
     inkscape:groupmode="layer"
     inkscape:label="kangaroo-silhouette-color-pdv"
     transform="matrix(1.3333333,0,0,-1.3333333,0,1066.6667)"><g
       id="g4501"><g
         id="g4503"
         clip-path="url(#clipPath4507)"><path
           d="m 752.414,507.554 c -0.533,0.601 -1.06,1.175 -1.58,1.718 l -0.615,-1.266 z"
           style="fill:#b4281c;fill-opacity:1;fill-rule:nonzero;stroke:none"
           id="path4509" /><path
           d="m 766.746,443.784 c 1.033,0.227 1.904,0.524 2.577,0.894 5.638,3.093 13.277,14.005 13.277,18.734 0,2.182 -2.91,7.638 -6.366,12.004 -3.457,4.366 -9.822,13.094 -14.37,19.642 -3.588,5.268 -6.629,9.314 -9.45,12.496 l -2.195,0.452 z"
           style="fill:#b28e76;fill-opacity:1;fill-rule:nonzero;stroke:none"
           id="path4511" /><path
           d="m 750.219,508.006 0.615,1.266 c -3.28,3.42 -6.332,5.699 -9.702,7.429 -6.912,3.637 -9.458,10.004 -12.368,31.285 -1.456,11.456 -3.455,23.826 -4.546,27.644 -0.201,0.75 -0.438,1.491 -0.701,2.216 l -21.444,-5.636 c -0.177,-0.572 -0.384,-1.032 -0.591,-1.308 -0.198,-0.197 -0.997,0.017 -2.251,0.561 l -16.756,-4.405 z"
           style="fill:#c32500;fill-opacity:1;fill-rule:nonzero;stroke:none"
           id="path4513" /><path
           d="m 699.231,571.463 c -2.539,1.1 -6.938,3.549 -11.976,6.645 l -4.78,-11.05 z"
           style="fill:#c10600;fill-opacity:1;fill-rule:nonzero;stroke:none"
           id="path4515" /><path
           d="m 712.759,589.635 c -3.456,0 -10.186,-9.459 -10.186,-14.005 0,-1.241 -0.21,-2.483 -0.5,-3.42 l 21.444,5.636 c -2.353,6.491 -6.996,11.789 -10.758,11.789"
           style="fill:#c10600;fill-opacity:1;fill-rule:nonzero;stroke:none"
           id="path4517" /><path
           d="m 727.477,450.472 c 2.509,-0.788 4.953,-1.607 6.925,-2.338 10.633,-4.125 25.279,-5.898 32.344,-4.35 l -16.527,64.222 z"
           style="fill:#abc38b;fill-opacity:1;fill-rule:nonzero;stroke:none"
           id="path4519" /><path
           d="m 687.255,578.108 c -2.007,1.234 -4.115,2.57 -6.245,3.966 l 1.465,-15.016 z"
           style="fill:#c60800;fill-opacity:1;fill-rule:nonzero;stroke:none"
           id="path4521" /><path
           d="m 692.206,461.047 c 0.364,1.273 3.456,0.548 8.73,-2 4.365,-2 11.64,-4.729 16.188,-5.638 2.72,-0.654 6.611,-1.762 10.353,-2.937 l 22.742,57.534 -92.79,2.277 c -1.343,-0.876 -2.595,-1.741 -3.72,-2.579 l 27.983,-62.362 c 5.061,6.156 9.335,12.384 10.514,15.705"
           style="fill:#c8c46c;fill-opacity:1;fill-rule:nonzero;stroke:none"
           id="path4523" /><path
           d="m 682.475,567.058 -9.111,-17.22 c 4.678,-9.245 9.634,-16.168 13.749,-18.769 7.821,-5.091 8.004,-6.91 1.091,-6.91 -5.035,0 -20.558,-7.218 -30.775,-13.876 l 92.79,-2.277 z"
           style="fill:#ce620a;fill-opacity:1;fill-rule:nonzero;stroke:none"
           id="path4525" /><path
           d="m 599.441,374.615 50.977,130.464 -2.953,-2.382 -3.569,3.568 -78.627,-37.827 z"
           style="fill:#dae262;fill-opacity:1;fill-rule:nonzero;stroke:none"
           id="path4527" /><path
           d="m 624.013,193.521 c 0.119,-0.005 0.232,-0.01 0.353,-0.016 12.366,-0.728 12.55,-0.545 13.822,4.364 1.173,4.547 -0.226,11.428 -3.16,18.583 L 613.83,205.853 Z"
           style="fill:#008ad9;fill-opacity:1;fill-rule:nonzero;stroke:none"
           id="path4529" /><path
           d="m 608.271,367.492 c 2.644,2.846 4.555,6.038 5.907,9.761 l -14.737,-2.638 z"
           style="fill:#74e0e0;fill-opacity:1;fill-rule:nonzero;stroke:none"
           id="path4531" /><path
           d="m 614.178,377.253 c 1.02,2.809 1.725,5.916 2.184,9.407 2.003,13.639 6.004,18.005 26.192,28.371 10.002,5.275 22.735,13.458 28.19,18.553 3.512,3.212 7.421,7.469 10.948,11.758 l -27.983,62.362 c -0.206,-0.155 -0.409,-0.308 -0.605,-0.459 l -2.686,-2.166 -50.977,-130.464 z"
           style="fill:#afdf7b;fill-opacity:1;fill-rule:nonzero;stroke:none"
           id="path4533" /><path
           d="m 635.028,216.452 c -1.657,4.042 -3.803,8.17 -6.255,12.015 L 613.83,205.853 Z"
           style="fill:#009be2;fill-opacity:1;fill-rule:nonzero;stroke:none"
           id="path4535" /><path
           d="m 628.773,228.467 c -3.969,6.232 -8.735,11.718 -13.501,14.872 -3.214,2.096 -13.408,6.449 -25.054,10.744 l 23.612,-48.23 z"
           style="fill:#14b4ec;fill-opacity:1;fill-rule:nonzero;stroke:none"
           id="path4537" /><path
           d="m 681.01,582.074 c -2.029,1.328 -4.078,2.71 -6.082,4.107 -11.459,8.002 -15.824,1.817 -10.368,-14.917 0.542,-1.638 1.104,-3.257 1.684,-4.851 l 16.231,0.645 z"
           style="fill:#dc2b00;fill-opacity:1;fill-rule:nonzero;stroke:none"
           id="path4539" /><path
           d="m 666.244,566.413 c 2.179,-5.988 4.61,-11.616 7.12,-16.575 l 9.111,17.22 z"
           style="fill:#df5e00;fill-opacity:1;fill-rule:nonzero;stroke:none"
           id="path4541" /><path
           d="m 569.246,350.162 c 5.217,0.717 10.844,2.115 16.197,4.122 10.752,3.987 18.008,8.02 22.828,13.208 l -8.83,7.123 z"
           style="fill:#67d7ef;fill-opacity:1;fill-rule:nonzero;stroke:none"
           id="path4543" /><path
           d="m 612.728,193.05 c 1.387,0.766 4.485,0.784 11.285,0.471 l -10.183,12.332 z"
           style="fill:#0074d4;fill-opacity:1;fill-rule:nonzero;stroke:none"
           id="path4545" /><path
           d="m 643.896,506.265 -4.071,4.07 c -7.274,7.458 -15.459,11.641 -30.919,15.46 -4.366,1.092 -15.823,8.184 -28.191,17.461 -9.948,7.379 -18.463,13.182 -26.438,17.877 l 10.992,-92.695 z"
           style="fill:#e88200;fill-opacity:1;fill-rule:nonzero;stroke:none"
           id="path4547" /><path
           d="m 565.269,468.438 -45.263,-68.644 79.435,-25.179 z"
           style="fill:#dcf07c;fill-opacity:1;fill-rule:nonzero;stroke:none"
           id="path4549" /><path
           d="m 590.218,254.083 c -3.511,1.295 -7.153,2.585 -10.776,3.806 -34.678,11.834 -52.414,21.98 -57.127,38.114 l -30.353,-41.928 c 5.678,-2.492 10.091,-5.306 14.184,-8.918 4.727,-4 14.55,-12.549 22.005,-18.732 2.578,-2.137 5.808,-4.992 9.277,-8.166 l 76.402,-12.406 z"
           style="fill:#31bded;fill-opacity:1;fill-rule:nonzero;stroke:none"
           id="path4551" /><path
           d="m 601.45,182.957 c 7.456,-1.273 10.184,0.726 10.184,7.456 0,1.291 0.174,2.128 1.094,2.637 l 1.102,12.803 -26.505,-22.523 c 4.484,1.068 5.723,0.943 14.125,-0.373"
           style="fill:#0069d5;fill-opacity:1;fill-rule:nonzero;stroke:none"
           id="path4553" /><path
           d="m 537.428,218.259 c 6.566,-6.008 13.986,-13.158 19.462,-18.753 15.822,-16.003 20.369,-18.552 28.918,-16.549 0.548,0.137 1.05,0.262 1.517,0.373 l 26.505,22.523 z"
           style="fill:#0181dd;fill-opacity:1;fill-rule:nonzero;stroke:none"
           id="path4555" /><path
           d="m 522,315.564 -58.048,-39.569 2.444,-12.065 c 3.527,-1.784 9.682,-4.203 15.742,-6.222 3.69,-1.17 6.922,-2.359 9.824,-3.633 l 30.353,41.928 c -1.657,5.67 -1.706,12.079 -0.315,19.561"
           style="fill:#8bebdb;fill-opacity:1;fill-rule:nonzero;stroke:none"
           id="path4557" /><path
           d="m 565.269,468.438 -10.992,92.695 c -0.134,0.079 -0.267,0.156 -0.399,0.234 L 515.81,486.124 Z"
           style="fill:#f38900;fill-opacity:1;fill-rule:nonzero;stroke:none"
           id="path4559" /><path
           d="m 520.006,399.794 18.473,-39.117 2.951,6.886 3.091,-7.094 c 1.818,-3.819 4.73,-7.821 6.73,-8.913 3.763,-2.042 10.451,-2.431 17.995,-1.394 l 30.195,24.453 z"
           style="fill:#b7f3bb;fill-opacity:1;fill-rule:nonzero;stroke:none"
           id="path4561" /><path
           d="m 515.043,577.47 c -0.895,0.239 -1.798,0.474 -2.714,0.707 -3.867,0.956 -7.245,1.733 -10.392,2.366 l 3.981,-32.67 z"
           style="fill:#ef3500;fill-opacity:1;fill-rule:nonzero;stroke:none"
           id="path4563" /><path
           d="m 553.299,561.705 c -12.819,7.442 -24.319,12.041 -38.256,15.765 l -9.125,-29.597 z"
           style="fill:#f43800;fill-opacity:1;fill-rule:nonzero;stroke:none"
           id="path4565" /><path
           d="m 515.81,486.124 38.068,75.243 c -0.193,0.113 -0.387,0.226 -0.579,0.338 l -47.381,-13.832 z"
           style="fill:#f77700;fill-opacity:1;fill-rule:nonzero;stroke:none"
           id="path4567" /><path
           d="m 515.81,486.124 4.196,-86.33 45.263,68.644 z"
           style="fill:#f2da4a;fill-opacity:1;fill-rule:nonzero;stroke:none"
           id="path4569" /><path
           d="m 501.937,580.543 c -10.025,2.015 -17.693,2.543 -31.258,2.543 -21.097,0 -22.553,-0.362 -43.651,-7.818 -0.866,-0.307 -1.737,-0.62 -2.615,-0.941 l 81.505,-26.454 z"
           style="fill:#fb6100;fill-opacity:1;fill-rule:nonzero;stroke:none"
           id="path4571" /><path
           d="m 532.699,347.191 5.78,13.486 -18.473,39.117 -51,-16.723 c 1.671,-9.243 2.846,-17.921 3.517,-26.131 l 57.488,-16.124 c 0.842,2.064 1.737,4.187 2.688,6.375"
           style="fill:#d8f890;fill-opacity:1;fill-rule:nonzero;stroke:none"
           id="path4573" /><path
           d="m 522,315.564 c 1.355,7.294 4.078,15.61 8.011,25.252 l -57.488,16.124 c 1.873,-22.87 -0.154,-42.105 -6.21,-59.764 -2.134,-6.222 -3.632,-11.375 -4.512,-15.634 l 2.151,-5.547 z"
           style="fill:#c5f5c1;fill-opacity:1;fill-rule:nonzero;stroke:none"
           id="path4575" /><path
           d="m 395.607,507.706 20.648,-88.96 c 8.191,-4.864 18.011,-8.23 31.325,-10.806 2.869,-0.563 5.493,-1.177 7.778,-1.801 l 60.452,79.985 z"
           style="fill:#ffd100;fill-opacity:1;fill-rule:nonzero;stroke:none"
           id="path4577" /><path
           d="m 515.81,486.124 -60.452,-79.985 c 5.104,-1.394 8.508,-2.833 9.136,-3.838 0.728,-1.455 2.183,-7.276 3.277,-12.732 0.438,-2.198 0.848,-4.362 1.235,-6.498 l 51,16.723 z"
           style="fill:#f9ed2d;fill-opacity:1;fill-rule:nonzero;stroke:none"
           id="path4579" /><path
           d="m 395.607,507.706 120.203,-21.582 -9.892,61.749 z"
           style="fill:#fd9d00;fill-opacity:1;fill-rule:nonzero;stroke:none"
           id="path4581" /><path
           d="m 505.918,547.873 -81.505,26.454 c -6.563,-2.403 -13.587,-5.288 -22.738,-9.448 l -6.068,-57.173 z"
           style="fill:#ff9300;fill-opacity:1;fill-rule:nonzero;stroke:none"
           id="path4583" /><path
           d="m 461.801,281.542 c -0.389,-1.877 -0.655,-3.578 -0.802,-5.12 l 2.953,-0.427 z"
           style="fill:#cbf387;fill-opacity:1;fill-rule:nonzero;stroke:none"
           id="path4585" /><path
           d="m 460.999,276.422 c -0.519,-5.392 0.419,-8.825 2.77,-10.895 0.472,-0.423 1.388,-0.972 2.627,-1.597 l -2.444,12.065 z"
           style="fill:#96eaa2;fill-opacity:1;fill-rule:nonzero;stroke:none"
           id="path4587" /><path
           d="m 368.338,464.5 c 0.197,-0.998 0.355,-2.087 0.489,-3.272 1.274,-9.456 9.094,-25.28 14.915,-29.827 2.909,-2.363 7.457,-3.637 12.186,-3.637 5.457,0 9.457,-1.455 14.004,-4.731 2.012,-1.548 4.109,-2.971 6.323,-4.287 l -20.648,88.96 z"
           style="fill:#ffce00;fill-opacity:1;fill-rule:nonzero;stroke:none"
           id="path4589" /><path
           d="m 270.609,475.932 12.969,-18.128 c 9.696,1.904 21.852,4.814 40.325,9.246 35.213,8.344 42.249,8.569 44.435,-2.55 l 27.269,43.206 z"
           style="fill:#feb200;fill-opacity:1;fill-rule:nonzero;stroke:none"
           id="path4591" /><path
           d="M 401.675,564.879 C 389.797,559.48 374.33,551.931 351.621,540.5 l 43.986,-32.794 z"
           style="fill:#ff8500;fill-opacity:1;fill-rule:nonzero;stroke:none"
           id="path4593" /><path
           d="M 395.607,507.706 351.621,540.5 c -6.141,-3.092 -12.808,-6.465 -20.079,-10.159 -13.106,-6.6 -29.294,-13.59 -45.748,-19.856 l -15.185,-34.553 z"
           style="fill:#fe9400;fill-opacity:1;fill-rule:nonzero;stroke:none"
           id="path4595" /><path
           d="m 255.739,454.499 c 9.675,0.355 17.306,1.235 27.839,3.305 l -12.969,18.128 z"
           style="fill:#ffa300;fill-opacity:1;fill-rule:nonzero;stroke:none"
           id="path4597" /><path
           d="m 285.794,510.485 c -11.961,-4.557 -24.059,-8.729 -35.221,-12.092 l 20.036,-22.461 z"
           style="fill:#fd7700;fill-opacity:1;fill-rule:nonzero;stroke:none"
           id="path4599" /><path
           d="m 183.979,466.939 5.634,-11.674 c 8.782,-0.778 19.633,-0.947 38.26,-0.947 11.935,-0.051 20.493,-0.089 27.866,0.181 l 14.87,21.433 z"
           style="fill:#ff8800;fill-opacity:1;fill-rule:nonzero;stroke:none"
           id="path4601" /><path
           d="m 270.609,475.932 -20.036,22.461 c -3.098,-0.934 -6.13,-1.809 -9.06,-2.608 -18.475,-5.097 -37.682,-6.95 -56.995,-5.638 l -0.539,-23.208 z"
           style="fill:#fd7400;fill-opacity:1;fill-rule:nonzero;stroke:none"
           id="path4603" /><path
           d="m 183.979,466.939 0.539,23.208 c -15.244,1.036 -30.552,4.046 -45.62,8.989 l -14.87,-22.304 z"
           style="fill:#fa6200;fill-opacity:1;fill-rule:nonzero;stroke:none"
           id="path4605" /><path
           d="m 172.551,457.876 c 5.948,-1.255 11.016,-2.077 17.062,-2.611 l -5.634,11.674 z"
           style="fill:#ff7200;fill-opacity:1;fill-rule:nonzero;stroke:none"
           id="path4607" /><path
           d="m 124.028,476.832 -0.632,-4.293 c 13.355,-5.808 28.147,-10.144 46.275,-14.039 0.987,-0.22 1.945,-0.428 2.88,-0.624 l 11.428,9.063 z"
           style="fill:#fa6800;fill-opacity:1;fill-rule:nonzero;stroke:none"
           id="path4609" /><path
           d="m 138.898,499.136 c -4.097,1.344 -8.177,2.831 -12.232,4.461 l -2.638,-26.765 z"
           style="fill:#f64d00;fill-opacity:1;fill-rule:nonzero;stroke:none"
           id="path4611" /><path
           d="M 67.987,510.761 C 85.411,494.52 100.5,483.45 117.595,475.199 l 6.433,1.633 z"
           style="fill:#e94c00;fill-opacity:1;fill-rule:nonzero;stroke:none"
           id="path4613" /><path
           d="m 29.625,600.912 c 0,12.549 -1.818,15.459 -5.639,8.365 -3.181,-5.835 -1.036,-26.626 3.933,-41.984 l 11.179,3.23 c -6.91,10.305 -9.473,19.35 -9.473,30.389"
           style="fill:#dd1c00;fill-opacity:1;fill-rule:nonzero;stroke:none"
           id="path4615" /><path
           d="m 126.666,503.597 c -5.292,2.127 -10.545,4.494 -15.741,7.104 -23.644,11.822 -36.74,21.278 -54.383,39.285 -7.624,7.761 -13.311,14.374 -17.444,20.537 l -11.179,-3.23 c 0.143,-0.438 0.286,-0.873 0.433,-1.302 6.184,-17.642 18.007,-34.557 35.466,-51.29 1.406,-1.347 2.794,-2.658 4.169,-3.94 l 56.041,-33.929 z"
           style="fill:#ed4100;fill-opacity:1;fill-rule:nonzero;stroke:none"
           id="path4617" /><path
           d="m 117.595,475.199 c 1.907,-0.92 3.838,-1.807 5.801,-2.66 l 0.632,4.293 z"
           style="fill:#f55e00;fill-opacity:1;fill-rule:nonzero;stroke:none"
           id="path4619" /></g></g></g></svg>
